<?xml version="1.0" encoding="UTF-8"?>
<svg id="Layer_2" data-name="Layer 2" xmlns="http://www.w3.org/2000/svg" viewBox="0 0 609.57 110.36">
  <defs>
    <style>
      .cls-1 {
        fill: #ff7425;
      }
    </style>
  </defs>
  <g id="Layer_1-2" data-name="Layer 1">
    <g>
      <path d="M99.66,86.22V35.5c0-1.02,.51-1.53,1.53-1.53h21.7c3.7,0,6.98,.77,9.84,2.32,2.86,1.54,5.08,3.7,6.68,6.47,1.59,2.77,2.39,5.94,2.39,9.51s-.7,6.35-2.11,8.78-3.37,4.42-5.89,5.95l9.49,18.95c.15,.31,.23,.57,.23,.8,0,.31-.12,.55-.36,.73-.24,.18-.57,.27-.98,.27h-12.25c-.84,0-1.44-.38-1.8-1.15l-7.5-16.04c-.38,.03-.93,.04-1.65,.04h-5.55v15.62c0,1.02-.51,1.53-1.53,1.53h-10.72c-1.02,0-1.53-.51-1.53-1.53Zm25.15-28.21c.94-.61,1.68-1.43,2.22-2.45,.54-1.02,.8-2.11,.8-3.25,0-2.02-.59-3.57-1.76-4.65-1.17-1.08-2.62-1.63-4.32-1.63h-8.31v12.9h8.19c1.17,0,2.23-.31,3.18-.92Z"/>
      <path d="M151.02,34.93v-8.99c0-1.02,.51-1.53,1.53-1.53h10.14c1.02,0,1.53,.51,1.53,1.53v8.99c0,1.02-.51,1.53-1.53,1.53h-10.14c-1.02,0-1.53-.51-1.53-1.53Zm11.56,52.82h-9.95c-1.02,0-1.53-.51-1.53-1.53V42.97c0-1.02,.51-1.53,1.53-1.53h9.95c1.02,0,1.53,.51,1.53,1.53v43.25c0,1.02-.51,1.53-1.53,1.53Z"/>
      <path d="M211.53,43.24c2.83,1.71,5.03,4.13,6.58,7.25,1.56,3.13,2.33,6.74,2.33,10.85v24.88c0,1.02-.51,1.53-1.53,1.53h-9.95c-1.02,0-1.53-.51-1.53-1.53v-23.42c0-3.11-.77-5.59-2.32-7.44-1.54-1.85-3.67-2.77-6.37-2.77-1.91,0-3.7,.45-5.36,1.36-1.66,.91-2.98,2.11-3.96,3.6-.98,1.49-1.47,3.06-1.47,4.69v24c0,1.02-.51,1.53-1.53,1.53h-9.95c-1.02,0-1.53-.51-1.53-1.53V42.97c0-1.02,.51-1.53,1.53-1.53h7.62c.84,0,1.43,.4,1.76,1.19l1.65,3.94c1.79-1.71,3.99-3.12,6.62-4.23,2.63-1.11,5.14-1.67,7.54-1.67,3.75,0,7.04,.86,9.87,2.56Z"/>
      <path d="M263.43,27.85h9.95c1.02,0,1.53,.51,1.53,1.53v56.83c0,1.02-.51,1.53-1.53,1.53h-7.62c-.84,0-1.43-.4-1.76-1.19l-.96-2.3c-3.19,2.99-7.2,4.48-12.02,4.48-4.36,0-8.38-1.08-12.06-3.23-3.67-2.16-6.58-5.08-8.73-8.76-2.14-3.69-3.21-7.72-3.21-12.11s1.08-8.38,3.23-12.04,5.07-6.56,8.75-8.71c3.67-2.14,7.68-3.21,12.02-3.21s7.88,1.16,10.87,3.48v-14.77c0-1.02,.51-1.53,1.53-1.53Zm-6.37,46.98c1.75-.98,3.12-2.35,4.13-4.1,1.01-1.75,1.51-3.72,1.51-5.91s-.5-4.22-1.49-5.99-2.36-3.17-4.1-4.19c-1.74-1.02-3.66-1.53-5.78-1.53s-4.04,.5-5.76,1.51c-1.72,1.01-3.08,2.41-4.06,4.19-.98,1.79-1.47,3.79-1.47,6.01s.48,4.2,1.45,5.93c.97,1.74,2.3,3.09,4,4.08,1.7,.98,3.62,1.47,5.76,1.47s4.05-.49,5.8-1.47Z"/>
      <path d="M318.58,41.44h9.95c1.02,0,1.53,.51,1.53,1.53v43.25c0,1.02-.51,1.53-1.53,1.53h-7.62c-.84,0-1.43-.4-1.76-1.19l-1.65-3.94c-1.79,1.71-3.99,3.12-6.62,4.23-2.63,1.11-5.14,1.67-7.54,1.67-3.75,0-7.04-.85-9.87-2.56-2.83-1.71-5.03-4.13-6.58-7.25-1.56-3.12-2.33-6.74-2.33-10.85v-24.88c0-1.02,.51-1.53,1.53-1.53h9.95c1.02,0,1.53,.51,1.53,1.53v23.42c0,2.04,.38,3.83,1.13,5.38,.75,1.54,1.81,2.74,3.18,3.58,1.36,.84,2.95,1.26,4.77,1.26,1.91,0,3.67-.45,5.26-1.36,1.59-.91,2.85-2.1,3.77-3.58,.92-1.48,1.38-3.05,1.38-4.71v-24c0-1.02,.51-1.53,1.53-1.53Z"/>
      <path d="M406.22,86.79c0,.28-.12,.51-.36,.69s-.57,.27-.98,.27h-4.82c-.71,0-1.33-.31-1.84-.92l-20.17-24.72-9.15,10.22v13.89c0,1.02-.51,1.53-1.53,1.53h-3.83c-1.02,0-1.53-.51-1.53-1.53V35.5c0-1.02,.51-1.53,1.53-1.53h3.83c1.02,0,1.53,.51,1.53,1.53v27.4l25.07-28.09c.54-.56,1.16-.84,1.88-.84h4.9c.41,0,.73,.08,.96,.23,.23,.15,.34,.37,.34,.65,0,.31-.15,.64-.46,1l-19.17,21.39,23.42,28.63c.25,.28,.38,.59,.38,.92Z"/>
      <path d="M421.09,85.62c-3.56-2.11-6.4-4.98-8.52-8.61s-3.18-7.61-3.18-11.92,1.06-8.37,3.18-12.02c2.12-3.65,4.96-6.54,8.54-8.67,3.57-2.13,7.44-3.2,11.6-3.2s7.99,1.07,11.56,3.2c3.57,2.13,6.42,5.02,8.54,8.67,2.12,3.65,3.18,7.66,3.18,12.02s-1.07,8.29-3.2,11.92-4.99,6.51-8.57,8.61c-3.58,2.1-7.44,3.16-11.58,3.16s-7.98-1.05-11.54-3.16Zm19.88-5.45c2.55-1.53,4.59-3.63,6.12-6.3,1.53-2.67,2.3-5.61,2.3-8.82s-.77-6.17-2.3-8.86c-1.53-2.69-3.57-4.81-6.12-6.35-2.55-1.54-5.29-2.32-8.23-2.32s-5.73,.77-8.3,2.32-4.63,3.66-6.16,6.35c-1.53,2.69-2.3,5.64-2.3,8.86s.76,6.16,2.3,8.82c1.53,2.67,3.58,4.76,6.16,6.3s5.34,2.3,8.3,2.3,5.68-.77,8.23-2.3Z"/>
      <path d="M524.49,43.39c2.58,1.51,4.57,3.66,5.97,6.47,1.4,2.81,2.11,6.09,2.11,9.84v26.52c0,1.02-.51,1.53-1.53,1.53h-3.48c-1.02,0-1.53-.51-1.53-1.53v-25.91c0-2.6-.47-4.87-1.4-6.81-.93-1.94-2.26-3.43-3.98-4.48-1.72-1.05-3.72-1.57-5.99-1.57-2.07,0-4.01,.59-5.82,1.76-1.81,1.17-3.27,2.74-4.38,4.71-1.11,1.96-1.67,4.07-1.67,6.31v25.99c0,1.02-.51,1.53-1.53,1.53h-3.48c-1.02,0-1.53-.51-1.53-1.53v-25.91c0-2.6-.47-4.87-1.4-6.81-.93-1.94-2.26-3.43-3.98-4.48-1.72-1.05-3.72-1.57-5.99-1.57-2.07,0-4.01,.59-5.84,1.78s-3.29,2.77-4.38,4.75c-1.1,1.98-1.65,4.09-1.65,6.33v25.91c0,1.02-.51,1.53-1.53,1.53h-3.48c-1.02,0-1.53-.51-1.53-1.53V43.54c0-1.02,.51-1.53,1.53-1.53h2.99c1.02,0,1.54,.5,1.57,1.49l.08,3.64c1.63-1.94,3.66-3.43,6.07-4.46s4.75-1.55,7.02-1.55c3.42,0,6.41,.75,8.98,2.26,2.56,1.51,4.55,3.65,5.95,6.43,.97-1.89,2.29-3.49,3.96-4.8s3.46-2.29,5.38-2.93c1.91-.64,3.75-.96,5.51-.96,3.42,0,6.42,.75,8.99,2.26Z"/>
      <path d="M544.77,32.82v-3.67c0-1.02,.51-1.53,1.53-1.53h3.48c1.02,0,1.53,.51,1.53,1.53v3.67c0,1.02-.51,1.53-1.53,1.53h-3.48c-1.02,0-1.53-.51-1.53-1.53Zm5.01,54.92h-3.48c-1.02,0-1.53-.51-1.53-1.53V43.54c0-1.02,.51-1.53,1.53-1.53h3.48c1.02,0,1.53,.51,1.53,1.53v42.67c0,1.02-.51,1.53-1.53,1.53Z"/>
      <path d="M568.98,87.11c-2.9-1.11-5.47-2.62-7.71-4.54-.41-.33-.61-.7-.61-1.11,0-.33,.14-.68,.42-1.03l1.95-2.53c.36-.43,.73-.65,1.11-.65,.28,0,.62,.14,1.03,.42,1.89,1.4,3.93,2.55,6.12,3.44,2.19,.89,4.41,1.34,6.66,1.34,1.81,0,3.43-.3,4.84-.9s2.52-1.45,3.31-2.55c.79-1.1,1.19-2.37,1.19-3.83s-.42-2.65-1.24-3.6c-.83-.94-2.02-1.73-3.56-2.35-1.54-.62-3.67-1.29-6.37-2.01-4.29-1.12-7.72-2.78-10.29-4.98-2.58-2.19-3.87-5.08-3.87-8.65,0-2.17,.56-4.2,1.68-6.08,1.12-1.89,2.86-3.41,5.21-4.57,2.35-1.16,5.27-1.74,8.76-1.74,2.35,0,4.75,.43,7.21,1.28,2.46,.86,4.57,2.05,6.33,3.58,.36,.28,.54,.61,.54,1,0,.41-.17,.79-.5,1.15l-2.07,2.49c-.31,.38-.66,.57-1.07,.57-.31,0-.66-.14-1.07-.42-1.33-1-2.83-1.8-4.5-2.41-1.67-.61-3.38-.92-5.11-.92-3.04,0-5.31,.58-6.83,1.74-1.52,1.16-2.28,2.66-2.28,4.5,0,1.2,.34,2.24,1.03,3.12,.69,.88,1.82,1.69,3.41,2.43s3.76,1.48,6.54,2.22c4.46,1.2,7.97,2.83,10.53,4.9,2.55,2.07,3.83,4.96,3.83,8.69,0,2.45-.64,4.72-1.91,6.81-1.28,2.09-3.09,3.76-5.43,4.99s-5.05,1.86-8.11,1.86c-3.21,0-6.27-.55-9.17-1.67Z"/>
      <path d="M603.02,32.82v-3.67c0-1.02,.51-1.53,1.53-1.53h3.48c1.02,0,1.53,.51,1.53,1.53v3.67c0,1.02-.51,1.53-1.53,1.53h-3.48c-1.02,0-1.53-.51-1.53-1.53Zm5.01,54.92h-3.48c-1.02,0-1.53-.51-1.53-1.53V43.54c0-1.02,.51-1.53,1.53-1.53h3.48c1.02,0,1.53,.51,1.53,1.53v42.67c0,1.02-.51,1.53-1.53,1.53Z"/>
    </g>
    <g>
      <g>
        <polygon points="39.93 70.57 52.65 55.23 42.86 55.23 30 70.69 30 58.89 22.18 58.89 22.18 92.82 30 92.82 30 82.52 34.64 76.93 43.82 92.82 52.95 92.82 39.93 70.57"/>
        <path class="cls-1" d="M41.56,41.47l4.37-4.5c2.67-2.75,4.01-6.73,2.9-10.41-.02-.06-.03-.11-.05-.17-1.72-5.41-7.07-8.84-12.75-8.84h-13.85V51.31h7.78V25.32h6.97c2.56,0,4.63,2.08,4.63,4.63,0,1.28-.52,2.44-1.36,3.28h0s-7.9,8.12-7.9,8.12l-.47,.55,11.03,13.33h9.77l-11.06-13.77Z"/>
      </g>
      <path d="M70.4,110.36H0V0H70.4V110.36ZM6.19,104.17h58.02V6.19H6.19V104.17Z"/>
    </g>
  </g>
</svg>